<svg width="38" height="38" viewBox="0 0 38 38" fill="none" xmlns="http://www.w3.org/2000/svg">
<path d="M7.02607 32.9225C9.9073 32.0981 15.6187 33.288 18.5 31.2227C21.3812 33.288 27.0926 32.0981 29.9739 32.9225C29.9739 32.9225 31.3762 33.3814 32.5236 34.6223C31.9457 35.4468 31.1213 35.4637 29.9739 35.0473C27.0926 34.2229 21.3812 35.4383 18.5 34.1974C15.6187 35.4383 9.9073 34.2229 7.02607 35.0473C5.87528 35.4637 5.05171 35.4468 4.47632 34.6223C5.62711 32.9735 7.02607 32.9225 7.02607 32.9225Z" fill="#1A1A1A" stroke="#1A1A1A"/>
<path d="M12.1256 29.5229C14.2504 31.6477 22.7496 31.6477 24.8744 29.5229C25.2993 28.248 24.8744 27.823 24.8744 27.823C24.8744 25.6982 22.7496 24.4234 22.7496 24.4234C27.4241 23.1485 27.8491 14.6493 18.5 11.2496C9.1509 14.6493 9.57586 23.1485 14.2504 24.4234C14.2504 24.4234 12.1256 25.6982 12.1256 27.823C12.1256 27.823 11.7007 28.248 12.1256 29.5229Z" fill="#1A1A1A" stroke="#1A1A1A"/>
<path d="M20.6247 9.1248C20.6247 9.68833 20.4009 10.2288 20.0024 10.6273C19.6039 11.0257 19.0634 11.2496 18.4999 11.2496C17.9364 11.2496 17.3959 11.0257 16.9975 10.6273C16.599 10.2288 16.3751 9.68833 16.3751 9.1248C16.3751 8.56126 16.599 8.02081 16.9975 7.62234C17.3959 7.22386 17.9364 7 18.4999 7C19.0634 7 19.6039 7.22386 20.0024 7.62234C20.4009 8.02081 20.6247 8.56126 20.6247 9.1248Z" fill="#1A1A1A" stroke="#1A1A1A"/>
</svg>
