<svg width="141" height="140" viewBox="0 0 141 140" fill="none" xmlns="http://www.w3.org/2000/svg">
<path d="M70.5 9.34112C70.463 9.40128 70.4521 9.39663 70.4141 9.46335C69.8741 10.4094 69.2192 11.994 68.5766 13.9332C67.2906 17.8114 65.9959 23.1399 64.8647 28.4864C63.7335 33.8329 62.757 39.2112 62.0652 43.275C61.7196 45.3066 61.4445 47.0101 61.2567 48.216C61.1629 48.8187 61.091 49.298 61.0434 49.6264C61.0243 49.7549 61.0128 49.8391 61.0024 49.9176C61.0284 50.301 61.517 51.1344 63.1921 51.9501C64.9153 52.7895 67.5616 53.3974 70.5002 53.3974C73.4391 53.3974 76.0852 52.7895 77.8084 51.9501C79.4835 51.1341 79.9721 50.3012 79.9986 49.9176L79.9576 49.6264C79.9095 49.2983 79.8373 48.8187 79.7438 48.216C79.5559 47.0101 79.2809 45.3066 78.9352 43.275C78.2434 39.2112 77.2673 33.8332 76.1352 28.4864C75.0043 23.1396 73.7098 17.8114 72.4239 13.9332C71.7813 11.994 71.1261 10.4097 70.5864 9.46308C70.5481 9.39608 70.5371 9.40019 70.5002 9.34058L70.5 9.34112ZM24.3071 14.5528C13.4262 22.7128 6.48633 33.6798 6.48633 45.8024C6.48633 54.2609 9.7457 62.1777 15.413 68.9612L22.8313 47.5701C19.7319 42.7981 18.0002 37.483 18.0002 31.8792C18.0002 25.5945 20.4483 19.7572 24.3068 14.5534L24.3071 14.5528ZM116.697 14.5572C120.551 19.7613 123.004 25.5986 123.004 31.8833C123.004 37.4869 121.272 42.8011 118.174 47.5723L125.59 68.9573C131.255 62.1747 134.513 54.2592 134.513 45.8021C134.513 33.6798 127.573 22.7122 116.697 14.5569L116.697 14.5572ZM59.0867 35.2851C49.1899 37.7942 42.1828 44.0051 37.0577 54.4898C30.2513 68.4151 27.2181 90.1476 27.1309 120.018C39.0877 126.738 52.1055 130.474 65.4094 131.164C65.3164 120.725 63.5155 104.218 62.2091 93.5148C43.9153 91.8919 36.0034 85.4503 36.0034 85.4503C36.0034 85.4503 37.0361 77.881 37.7523 74.5303C48.2555 78.0677 59.3145 79.8514 70.5035 79.7857C81.6882 79.8467 92.7468 78.0677 103.25 74.5303C103.966 77.881 105 85.4503 105 85.4503C105 85.4503 97.3523 92.0128 78.784 93.5571C77.4775 104.262 75.6819 120.74 75.5884 131.165C88.8925 130.474 101.91 126.738 113.867 120.018C113.78 90.1474 110.747 68.4151 103.941 54.4898C98.8163 44.0048 91.8087 37.7942 81.9119 35.2851C82.3939 37.85 82.8197 40.2472 83.1743 42.3256C83.2687 42.3762 83.3649 42.4241 83.4576 42.476C86.8893 44.3846 89.383 47.2639 89.8949 50.7762L91.5382 62.0678L91.3154 62.6141C89.8705 66.1633 86.1912 68.1676 82.2635 69.6286C78.3361 71.0899 73.9915 71.8798 70.5202 71.9135H70.477C67.0071 71.8779 62.6627 71.0877 58.7356 69.6275C54.8077 68.1668 51.1286 66.1642 49.6834 62.6144L49.4609 62.0681L51.1037 50.7765C51.615 47.2644 54.1087 44.3851 57.5404 42.4763C57.6334 42.4243 57.7296 42.3765 57.8239 42.3259C58.1786 40.2478 58.6043 37.8505 59.0864 35.2857L59.0867 35.2851ZM28.3496 44.9041L17.0183 77.5772L25.138 81.326C26.8005 69.8116 29.4042 60.2664 33.1585 52.585C34.0691 50.721 35.0562 48.9729 36.1155 47.335L28.3496 44.9041ZM112.654 44.9041L104.884 47.3364C105.943 48.9732 106.929 50.7215 107.84 52.5847C111.595 60.2664 114.199 69.8118 115.862 81.3274L123.985 77.5766L112.654 44.9036L112.654 44.9041ZM55.7606 50.1396C55.5823 50.5564 55.4606 50.9783 55.3988 51.4016L53.9532 61.3361C54.7593 62.6781 57.1168 64.3945 60.2477 65.5585C63.643 66.821 67.6866 67.5396 70.5005 67.5718C73.3131 67.5412 77.3556 66.8232 80.7506 65.5604C83.8814 64.3956 86.2396 62.6784 87.0457 61.3358L85.6 51.4013C85.5382 50.978 85.4168 50.5564 85.2382 50.1394C84.9388 50.2427 84.6304 50.3436 84.3168 50.4434C84.0488 52.923 82.039 54.7167 79.7082 55.852C77.2036 57.0721 74.0098 57.7376 70.4994 57.7376C66.9885 57.7376 63.7947 57.0721 61.2906 55.852C58.9601 54.7167 56.9503 52.923 56.6823 50.4434C56.3679 50.3433 56.0597 50.2425 55.7603 50.1391L55.7606 50.1396Z" fill="#F2B705"/>
</svg>
