<svg width="38" height="38" viewBox="0 0 38 38" fill="none" xmlns="http://www.w3.org/2000/svg">
<path fill-rule="evenodd" clip-rule="evenodd" d="M19.0018 7.625C28.1893 8.5 33.4393 14.625 33.0018 33H12.8768C12.8768 25.125 21.6268 27.3125 19.8768 14.625" fill="#1A1A1A"/>
<path d="M19.0018 7.625C28.1893 8.5 33.4393 14.625 33.0018 33H12.8768C12.8768 25.125 21.6268 27.3125 19.8768 14.625" stroke="#1A1A1A" stroke-width="1.5" stroke-linecap="round" stroke-linejoin="round"/>
<path fill-rule="evenodd" clip-rule="evenodd" d="M20.7518 14.625C21.0843 17.1713 15.8956 21.0737 13.7518 22.5C11.1268 24.25 11.2843 26.2975 9.37683 26C8.46508 25.1775 10.6106 23.34 9.37683 23.375C8.50183 23.375 9.54308 24.4513 8.50183 25.125C7.62683 25.125 5.00183 26 5.00183 21.625C5.00183 19.875 10.2518 11.125 10.2518 11.125C10.2518 11.125 11.9056 9.4625 12.0018 8.0625C11.3631 7.19275 11.5643 6.3125 11.5643 5.4375C12.4393 4.5625 14.1893 7.625 14.1893 7.625H15.9393C15.9393 7.625 16.6218 5.882 18.1268 5C19.0018 5 19.0018 7.625 19.0018 7.625" fill="#1A1A1A"/>
<path d="M20.7518 14.625C21.0843 17.1713 15.8956 21.0738 13.7518 22.5C11.1268 24.25 11.2843 26.2975 9.37683 26C8.46508 25.1775 10.6106 23.34 9.37683 23.375C8.50183 23.375 9.54308 24.4513 8.50183 25.125C7.62683 25.125 5.00183 26 5.00183 21.625C5.00183 19.875 10.2518 11.125 10.2518 11.125C10.2518 11.125 11.9056 9.4625 12.0018 8.0625C11.3631 7.19275 11.5643 6.3125 11.5643 5.4375C12.4393 4.5625 14.1893 7.625 14.1893 7.625H15.9393C15.9393 7.625 16.6218 5.882 18.1268 5C19.0018 5 19.0018 7.625 19.0018 7.625" stroke="#1A1A1A" stroke-width="1.5" stroke-linecap="round" stroke-linejoin="round"/>
</svg>
