<svg width="38" height="38" viewBox="0 0 38 38" fill="none" xmlns="http://www.w3.org/2000/svg">
<path d="M7.14286 10.6413C7.14286 11.5782 6.38334 12.3377 5.44643 12.3377C4.50952 12.3377 3.75 11.5782 3.75 10.6413C3.75 9.70434 4.50952 8.94482 5.44643 8.94482C6.38334 8.94482 7.14286 9.70434 7.14286 10.6413Z" fill="#1A1A1A" stroke="#1A1A1A"/>
<path d="M13.5325 8.24507C13.5325 9.18199 12.773 9.9415 11.8361 9.9415C10.8992 9.9415 10.1396 9.18199 10.1396 8.24507C10.1396 7.30816 10.8992 6.54865 11.8361 6.54865C12.773 6.54865 13.5325 7.30816 13.5325 8.24507Z" fill="#1A1A1A" stroke="#1A1A1A"/>
<path d="M20.3213 7.44643C20.3213 8.38334 19.5618 9.14286 18.6249 9.14286C17.688 9.14286 16.9285 8.38334 16.9285 7.44643C16.9285 6.50952 17.688 5.75 18.6249 5.75C19.5618 5.75 20.3213 6.50952 20.3213 7.44643Z" fill="#1A1A1A" stroke="#1A1A1A"/>
<path d="M27.1104 8.24507C27.1104 9.18199 26.3509 9.9415 25.414 9.9415C24.477 9.9415 23.7175 9.18199 23.7175 8.24507C23.7175 7.30816 24.477 6.54865 25.414 6.54865C26.3509 6.54865 27.1104 7.30816 27.1104 8.24507Z" fill="#1A1A1A" stroke="#1A1A1A"/>
<path d="M33.4999 10.6413C33.4999 11.5782 32.7404 12.3377 31.8035 12.3377C30.8666 12.3377 30.1071 11.5782 30.1071 10.6413C30.1071 9.70434 30.8666 8.94482 31.8035 8.94482C32.7404 8.94482 33.4999 9.70434 33.4999 10.6413Z" fill="#1A1A1A" stroke="#1A1A1A"/>
<path fill-rule="evenodd" clip-rule="evenodd" d="M7.8427 21.823C14.6317 20.625 24.6154 20.625 29.4076 21.823L31.4044 11.8393L25.4141 21.0243L25.1745 9.76265L21.0213 20.625L18.6252 9.04382L16.2291 20.625L12.0758 9.76265L11.8362 21.0243L5.84595 11.8393L7.8427 21.823Z" fill="#1A1A1A" stroke="#1A1A1A" stroke-width="1.5" stroke-linejoin="round"/>
<path fill-rule="evenodd" clip-rule="evenodd" d="M7.84253 21.823C7.84253 23.4204 9.04058 23.4204 9.83928 25.0178C10.638 26.2159 10.638 25.8165 10.2386 27.8133C9.04058 28.612 9.04058 29.8101 9.04058 29.8101C7.84253 31.0081 9.43993 31.8068 9.43993 31.8068C14.6315 32.6055 22.6185 32.6055 27.8101 31.8068C27.8101 31.8068 29.0081 31.0081 27.8101 29.8101C27.8101 29.8101 28.2094 28.612 27.0114 27.8133C26.612 25.8165 26.612 26.2159 27.4107 25.0178C28.2094 23.4204 29.4075 23.4204 29.4075 21.823C22.6185 20.625 14.6315 20.625 7.84253 21.823Z" fill="#1A1A1A" stroke="#1A1A1A" stroke-width="1.5" stroke-linejoin="round"/>
<path fill-rule="evenodd" clip-rule="evenodd" d="M9.43982 31.8068C15.3884 33.8762 21.8614 33.8762 27.8099 31.8068H9.43982Z" fill="#1A1A1A"/>
<path d="M9.43982 31.8068C15.3884 33.8762 21.8614 33.8762 27.8099 31.8068" stroke="#1A1A1A" stroke-width="1.5" stroke-linejoin="round"/>
</svg>
