<svg width="17" height="18" viewBox="0 0 17 18" fill="none" xmlns="http://www.w3.org/2000/svg">
<path d="M8.5 2.03614C10.753 2.03614 11.0602 2.03614 11.9819 2.03614C12.8012 2.03614 13.2108 2.24096 13.5181 2.34337C13.9277 2.54819 14.2349 2.6506 14.5422 2.95783C14.8494 3.26506 15.0542 3.57229 15.1566 3.98193C15.259 4.28916 15.3614 4.6988 15.4639 5.51807C15.4639 6.43976 15.4639 6.64458 15.4639 9C15.4639 11.3554 15.4639 11.5602 15.4639 12.4819C15.4639 13.3012 15.259 13.7108 15.1566 14.0181C14.9518 14.4277 14.8494 14.7349 14.5422 15.0422C14.2349 15.3494 13.9277 15.5542 13.5181 15.6566C13.2108 15.759 12.8012 15.8614 11.9819 15.9639C11.0602 15.9639 10.8554 15.9639 8.5 15.9639C6.14458 15.9639 5.93976 15.9639 5.01807 15.9639C4.1988 15.9639 3.78916 15.759 3.48193 15.6566C3.07229 15.4518 2.76506 15.3494 2.45783 15.0422C2.1506 14.7349 1.94578 14.4277 1.84337 14.0181C1.74096 13.7108 1.63855 13.3012 1.53614 12.4819C1.53614 11.5602 1.53614 11.3554 1.53614 9C1.53614 6.64458 1.53614 6.43976 1.53614 5.51807C1.53614 4.6988 1.74096 4.28916 1.84337 3.98193C2.04819 3.57229 2.1506 3.26506 2.45783 2.95783C2.76506 2.6506 3.07229 2.44578 3.48193 2.34337C3.78916 2.24096 4.1988 2.13855 5.01807 2.03614C5.93976 2.03614 6.24699 2.03614 8.5 2.03614ZM8.5 0.5C6.14458 0.5 5.93976 0.5 5.01807 0.5C4.09639 0.5 3.48193 0.70482 2.96988 0.909639C2.45783 1.11446 1.94578 1.42169 1.43374 1.93374C0.921687 2.44578 0.716868 2.85542 0.409639 3.46988C0.20482 3.98193 0.10241 4.59639 0 5.51807C0 6.43976 0 6.74699 0 9C0 11.3554 0 11.5602 0 12.4819C0 13.4036 0.20482 14.0181 0.409639 14.5301C0.614458 15.0422 0.921687 15.5542 1.43374 16.0663C1.94578 16.5783 2.35542 16.7831 2.96988 17.0904C3.48193 17.2952 4.09639 17.3976 5.01807 17.5C5.93976 17.5 6.24699 17.5 8.5 17.5C10.753 17.5 11.0602 17.5 11.9819 17.5C12.9036 17.5 13.5181 17.2952 14.0301 17.0904C14.5422 16.8855 15.0542 16.5783 15.5663 16.0663C16.0783 15.5542 16.2831 15.1446 16.5904 14.5301C16.7952 14.0181 16.8976 13.4036 17 12.4819C17 11.5602 17 11.253 17 9C17 6.74699 17 6.43976 17 5.51807C17 4.59639 16.7952 3.98193 16.5904 3.46988C16.3855 2.95783 16.0783 2.44578 15.5663 1.93374C15.0542 1.42169 14.6446 1.21687 14.0301 0.909639C13.5181 0.70482 12.9036 0.60241 11.9819 0.5C11.0602 0.5 10.8554 0.5 8.5 0.5Z" fill="#1A1A1A"/>
<path d="M8.5 4.59639C6.04217 4.59639 4.09639 6.54217 4.09639 9C4.09639 11.4578 6.04217 13.4036 8.5 13.4036C10.9578 13.4036 12.9036 11.4578 12.9036 9C12.9036 6.54217 10.9578 4.59639 8.5 4.59639ZM8.5 11.8675C6.96386 11.8675 5.63253 10.6386 5.63253 9C5.63253 7.46386 6.86145 6.13253 8.5 6.13253C10.0361 6.13253 11.3675 7.36145 11.3675 9C11.3675 10.5361 10.0361 11.8675 8.5 11.8675Z" fill="#1A1A1A"/>
<path d="M13.006 5.51807C13.5716 5.51807 14.0301 5.05957 14.0301 4.49398C14.0301 3.92838 13.5716 3.46988 13.006 3.46988C12.4404 3.46988 11.9819 3.92838 11.9819 4.49398C11.9819 5.05957 12.4404 5.51807 13.006 5.51807Z" fill="#1A1A1A"/>
</svg>
