<svg width="122" height="31" viewBox="0 0 122 31" fill="none" xmlns="http://www.w3.org/2000/svg">
<path d="M38.2557 12.7861C37.592 17.5766 33.9243 21.157 29.2397 21.6069C29.156 21.6143 29.0705 21.618 28.9869 21.618C23.4044 21.6366 17.8219 21.6552 12.2357 21.6738C12.0926 21.6738 11.9494 21.6849 11.81 21.7091C7.64409 22.449 5.7907 25.4716 4.54334 29.0948C4.49686 29.2286 4.46712 29.368 4.4411 29.5056C4.39276 29.7621 4.26449 29.9536 3.93174 29.9555C2.83495 29.9685 1.73816 29.9964 0.645088 29.9648C-0.176574 29.9424 -0.0631747 29.593 0.171055 29.2156C0.286311 29.0297 0.379257 28.8271 0.442462 28.617C0.927652 27.022 1.47233 25.4438 2.24194 23.964C4.42994 19.7442 7.92479 17.5729 12.6875 17.558C17.8145 17.5394 22.9434 17.5822 28.0723 17.5989C28.154 17.5989 28.234 17.5952 28.3158 17.5878C28.5519 17.5655 28.7898 17.5432 29.0278 17.519C29.2415 17.4985 29.4535 17.4521 29.6524 17.3758C32.0374 16.4612 33.7923 14.9313 34.1659 12.2284C34.6883 8.46026 31.9184 5.24239 28.0704 5.20149C22.2314 5.13457 16.3924 5.13085 10.5571 5.20521C9.06062 5.22752 9.01043 4.73861 9.52722 3.60836C10.1611 2.22715 11.0646 1.24748 12.6744 1.13222C18.216 0.955619 23.7557 0.957477 29.2973 1.1285C29.3865 1.13036 29.4758 1.1378 29.5631 1.14895C34.1399 1.72895 37.6682 5.29816 38.2612 9.96788C38.3969 10.9067 38.4044 11.8473 38.2557 12.7861Z" fill="#F2B705"/>
<path d="M30.0613 11.5146C29.9721 12.6281 29.3066 13.2806 28.1596 13.3792C21.0044 13.3977 13.8511 13.4163 6.6997 13.4293C6.46175 13.4293 6.1513 13.5111 6.10669 13.1226C6.61047 11.1912 7.4879 9.63334 9.69077 9.39168C9.78186 9.38238 9.87481 9.37866 9.9659 9.37866C16.0075 9.37866 22.0492 9.38238 28.0908 9.38424C28.4496 9.38424 28.8121 9.44559 29.13 9.61289C29.8215 9.97353 30.1282 10.6372 30.0613 11.5146Z" fill="#F2B705"/>
<path d="M24.6498 26.4159C24.2594 28.0946 23.475 29.4145 21.6792 29.8048C21.5658 29.829 21.4505 29.8439 21.3353 29.8513C17.4649 30.145 13.5927 29.8996 9.71862 29.974C8.23888 30.0056 9.18882 29.1728 9.25946 28.656C9.6517 27.3975 10.4046 26.4977 11.7263 26.1613C13.206 25.5906 14.7527 25.8601 16.2715 25.8341C18.6956 25.7969 21.1215 25.8025 23.5456 25.8471C23.9397 25.8545 24.7093 25.4214 24.6498 26.4159Z" fill="#F2B705"/>
<path d="M51.9751 29.9246H40.4096C37.0809 29.7298 35.6756 26.9897 36.1897 21.7085C36.7037 16.4274 38.7556 13.6956 42.3414 13.5173L53.6043 13.5298L53.2063 17.5259H43.2575C42.5155 17.5342 41.9724 17.7953 41.6284 18.3093C40.8324 20.3406 40.5133 22.3718 40.6791 24.403C40.7661 25.0497 41.1558 25.4642 41.8522 25.6466L52.398 25.6715L51.9751 29.9246Z" fill="#F2B705"/>
<path d="M54.3338 13.4924H59.2336L58.6242 19.5612L64.7179 19.5363L65.3604 13.4551L70.2602 13.4882L68.6187 29.966L63.6608 29.9411L64.3158 23.5904H58.2097L57.5879 29.9204H52.6881L54.3338 13.4924Z" fill="#F2B705"/>
<path d="M85.7885 29.9244H74.2313C70.9192 29.7296 69.5181 26.9978 70.0279 21.7249C70.5378 16.4562 72.5897 13.7285 76.1755 13.5503H87.4135L87.0155 17.534L77.0543 17.5464C76.2086 17.5174 75.707 17.7246 75.5412 18.1806L75.1433 19.5859L86.829 19.5983L86.4062 23.5364L74.8158 23.4908L74.8282 24.4152C74.8573 25.1946 75.1391 25.6174 75.6739 25.6796L86.2114 25.6671L85.7885 29.9244Z" fill="#F2B705"/>
<path d="M102.959 17.8078H93.8762C93.2585 17.8078 92.786 17.8368 92.4502 17.8948C92.1186 17.9529 91.8284 18.1933 91.5755 18.6161C91.6543 19.1467 91.8657 19.4452 92.2098 19.5115C92.5538 19.5779 93.0844 19.611 93.8057 19.611H98.2454C100.028 19.7147 101.271 20.2287 101.984 21.1572C102.697 22.0858 102.967 23.3833 102.805 25.0497C102.54 26.712 101.955 27.9432 101.048 28.7349C100.14 29.5267 98.6433 29.9412 96.5582 29.9702H86.6426L87.0654 25.7627H96.4878C97.3003 25.7627 97.9179 25.7337 98.3449 25.6757C98.7719 25.6176 99.062 25.3026 99.2196 24.7305C99.1657 24.2787 98.946 24.0051 98.5687 23.918C98.1915 23.8268 97.5531 23.7812 96.666 23.7812H92.3756C90.4853 23.7812 89.1464 23.3211 88.3629 22.3967C87.5794 21.4764 87.2685 20.1955 87.4302 18.5664C87.737 16.8544 88.3505 15.6149 89.2832 14.8397C90.2117 14.0646 91.6875 13.6334 93.7021 13.5381H103.381L102.959 17.8078Z" fill="#F2B705"/>
<path d="M118.719 17.8078H109.637C109.019 17.8078 108.546 17.8368 108.211 17.8948C107.879 17.9529 107.589 18.1933 107.336 18.6161C107.415 19.1467 107.626 19.4452 107.97 19.5115C108.314 19.5779 108.845 19.611 109.566 19.611H114.006C115.788 19.7147 117.032 20.2287 117.745 21.1572C118.458 22.0858 118.727 23.3833 118.566 25.0497C118.3 26.712 117.716 27.9432 116.808 28.7349C115.9 29.5267 114.404 29.9412 112.319 29.9702H102.403L102.826 25.7627H112.248C113.061 25.7627 113.678 25.7337 114.105 25.6757C114.532 25.6176 114.823 25.3026 114.98 24.7305C114.926 24.2787 114.706 24.0051 114.329 23.918C113.952 23.8268 113.314 23.7812 112.427 23.7812H108.136C106.246 23.7812 104.907 23.3211 104.123 22.3967C103.34 21.4764 103.029 20.1955 103.191 18.5664C103.497 16.8544 104.111 15.6149 105.044 14.8397C105.972 14.0646 107.448 13.6334 109.463 13.5381H119.142L118.719 17.8078Z" fill="#F2B705"/>
</svg>
