<svg width="88" height="88" viewBox="0 0 88 88" fill="none" xmlns="http://www.w3.org/2000/svg">
<path d="M86.8492 26.6616C85.3782 37.268 77.249 45.195 66.866 46.1911C66.6806 46.2075 66.491 46.2158 66.3056 46.2158C53.9325 46.2569 41.5594 46.2981 29.1781 46.3392C28.8608 46.3392 28.5436 46.3639 28.2346 46.4174C19.0011 48.0555 14.8932 54.7478 12.1285 62.7695C12.0255 63.0659 11.9596 63.3746 11.9019 63.6791C11.7948 64.2471 11.5105 64.6711 10.773 64.6752C8.34203 64.704 5.91108 64.7657 3.48838 64.6957C1.66723 64.6464 1.91857 63.8726 2.43772 63.0371C2.69318 62.6255 2.89919 62.1769 3.03928 61.7118C4.11466 58.1804 5.32189 54.6861 7.02767 51.4099C11.8772 42.067 19.6233 37.2598 30.1793 37.2268C41.543 37.1857 52.9107 37.2803 64.2785 37.3174C64.4598 37.3174 64.6369 37.3092 64.8182 37.2927C65.3415 37.2433 65.8689 37.1939 66.3963 37.1404C66.8701 37.0951 67.3398 36.9922 67.7807 36.8235C73.067 34.7985 76.9565 31.4112 77.7846 25.4268C78.9424 17.0841 72.8033 9.9596 64.2744 9.86905C51.3327 9.72088 38.391 9.71265 25.4575 9.87728C22.1407 9.92667 22.0295 8.84422 23.1749 6.3418C24.5799 3.28376 26.5823 1.11472 30.1505 0.859543C42.4329 0.468541 54.7113 0.472655 66.9937 0.851309C67.1915 0.855425 67.3893 0.871889 67.5829 0.896584C77.727 2.18072 85.5472 10.0831 86.8615 20.422C87.1623 22.5005 87.1788 24.5831 86.8492 26.6616Z" fill="#F2B705"/>
<path d="M68.687 23.8463C68.4892 26.3117 67.0142 27.7564 64.472 27.9745C48.6131 28.0157 32.7584 28.0568 16.9079 28.0856C16.3805 28.0856 15.6924 28.2667 15.5935 27.4065C16.7101 23.1302 18.6548 19.6811 23.5373 19.1461C23.7392 19.1255 23.9452 19.1173 24.1471 19.1173C37.5379 19.1173 50.9287 19.1255 64.3195 19.1296C65.1147 19.1296 65.9182 19.2655 66.6227 19.6359C68.1555 20.4343 68.8353 21.9037 68.687 23.8463Z" fill="#F2B705"/>
<path d="M56.6931 56.8387C55.8278 60.5553 54.0891 63.4775 50.1089 64.3418C49.8576 64.3953 49.6021 64.4282 49.3467 64.4447C40.7683 65.095 32.1858 64.5517 23.5993 64.7163C20.3195 64.7863 22.425 62.9424 22.5816 61.7982C23.4509 59.0118 25.1196 57.0198 28.0491 56.2748C31.3288 55.0113 34.7569 55.6081 38.1231 55.5504C43.4959 55.4681 48.8728 55.4805 54.2456 55.5792C55.1191 55.5957 56.8249 54.6367 56.6931 56.8387Z" fill="#F2B705"/>
<path d="M16.6648 87.164H5.16933C1.86078 86.9706 0.464018 84.25 0.974928 79.0065C1.48584 73.7629 3.52536 71.0506 7.08937 70.8736L18.2841 70.886L17.8885 74.8536H7.99995C7.26243 74.8619 6.72267 75.1211 6.38069 75.6315C5.5896 77.6482 5.27235 79.665 5.43716 81.6817C5.52369 82.3238 5.91098 82.7354 6.60318 82.9165L17.0851 82.9412L16.6648 87.164Z" fill="#F2B705"/>
<path d="M19.0093 70.8489H23.8794L23.2737 76.8745L29.3305 76.8497L29.9691 70.8119L34.8392 70.8448L33.2076 87.2051L28.2798 87.1804L28.9308 80.875H22.8617L22.2437 87.1599H17.3735L19.0093 70.8489Z" fill="#F2B705"/>
<path d="M50.2737 87.164H38.7864C35.4944 86.9705 34.1017 84.2582 34.6085 79.0229C35.1153 73.7917 37.1548 71.0835 40.7188 70.9065H51.8888L51.4933 74.8618L41.5923 74.8742C40.7518 74.8453 40.2532 75.0511 40.0884 75.5039L39.6929 76.8991L51.3078 76.9115L50.8876 80.8215L39.3674 80.7762L39.3797 81.6941C39.4086 82.4678 39.6888 82.8876 40.2203 82.9494L50.6939 82.937L50.2737 87.164Z" fill="#F2B705"/>
<path d="M67.3396 75.1335H58.3121C57.6982 75.1335 57.2285 75.1623 56.8948 75.2199C56.5652 75.2775 56.2768 75.5162 56.0254 75.936C56.1037 76.4629 56.3138 76.7592 56.6558 76.825C56.9978 76.8909 57.5252 76.9238 58.2421 76.9238H62.6549C64.4266 77.0267 65.6627 77.5371 66.3713 78.459C67.08 79.381 67.3479 80.6692 67.1872 82.3238C66.9235 83.9742 66.3425 85.1966 65.4402 85.9827C64.5378 86.7688 63.0504 87.1804 60.9779 87.2092H51.1223L51.5426 83.0317H60.9079C61.7155 83.0317 62.3294 83.0029 62.7538 82.9453C63.1782 82.8876 63.4666 82.5748 63.6232 82.0069C63.5696 81.5582 63.3512 81.2866 62.9763 81.2002C62.6013 81.1096 61.9668 81.0643 61.0851 81.0643H56.8206C54.9418 81.0643 53.611 80.6075 52.8322 79.6897C52.0535 78.776 51.7445 77.5042 51.9052 75.8866C52.2101 74.1868 52.8199 72.9562 53.7469 72.1865C54.6699 71.4169 56.1367 70.9888 58.1391 70.8942H67.7599L67.3396 75.1335Z" fill="#F2B705"/>
<path d="M83.0049 75.1335H73.9774C73.3635 75.1335 72.8938 75.1623 72.5601 75.2199C72.2304 75.2775 71.942 75.5162 71.6907 75.936C71.769 76.4629 71.9791 76.7592 72.3211 76.825C72.6631 76.8909 73.1905 76.9238 73.9074 76.9238H78.3202C80.0919 77.0267 81.3279 77.5371 82.0366 78.459C82.7453 79.381 83.0131 80.6692 82.8524 82.3238C82.5887 83.9742 82.0078 85.1966 81.1054 85.9827C80.2031 86.7688 78.7157 87.1804 76.6432 87.2092H66.7876L67.2079 83.0317H76.5732C77.3807 83.0317 77.9947 83.0029 78.419 82.9453C78.8434 82.8876 79.1318 82.5748 79.2884 82.0069C79.2349 81.5582 79.0165 81.2866 78.6415 81.2002C78.2666 81.1096 77.6321 81.0643 76.7503 81.0643H72.4859C70.6071 81.0643 69.2762 80.6075 68.4975 79.6897C67.7188 78.776 67.4098 77.5042 67.5704 75.8866C67.8753 74.1868 68.4851 72.9562 69.4122 72.1865C70.3351 71.4169 71.8019 70.9888 73.8044 70.8942H83.4251L83.0049 75.1335Z" fill="#F2B705"/>
</svg>
