<svg width="18" height="18" viewBox="0 0 18 18" fill="none" xmlns="http://www.w3.org/2000/svg">
<path d="M12.2274 3.22738C12.3934 3.05546 12.592 2.91833 12.8116 2.82399C13.0312 2.72966 13.2674 2.68 13.5064 2.67792C13.7454 2.67585 13.9825 2.72139 14.2037 2.8119C14.4249 2.9024 14.6259 3.03606 14.7949 3.20506C14.9639 3.37407 15.0975 3.57504 15.188 3.79626C15.2785 4.01747 15.3241 4.25449 15.322 4.4935C15.3199 4.7325 15.2703 4.9687 15.1759 5.1883C15.0816 5.40791 14.9445 5.60653 14.7726 5.77258L14.0589 6.48627L11.5137 3.94108L12.2274 3.22738V3.22738ZM10.2411 5.21368L2.69995 12.7548V15.3H5.24515L12.7872 7.75888L10.2402 5.21368H10.2411Z" fill="#1A1A1A"/>
</svg>
