<svg width="38" height="38" viewBox="0 0 38 38" fill="none" xmlns="http://www.w3.org/2000/svg">
<path d="M18.5 6C16.4822 6 14.8478 7.64328 14.8478 9.67213C14.8478 10.4892 15.1126 11.242 15.56 11.857C13.7796 12.8852 12.5652 14.8039 12.5652 17.0164C12.5652 18.88 13.4235 20.5416 14.7657 21.6341C12.0265 22.6072 8 26.7292 8 34H29C29 26.7292 24.9735 22.6072 22.2343 21.6341C23.5765 20.5416 24.4348 18.88 24.4348 17.0164C24.4348 14.8039 23.2204 12.8852 21.44 11.857C21.8874 11.242 22.1522 10.4892 22.1522 9.67213C22.1522 7.64328 20.5178 6 18.5 6Z" fill="#1A1A1A"/>
</svg>
