<svg width="31" height="32" viewBox="0 0 31 32" fill="none" xmlns="http://www.w3.org/2000/svg">
<path fill-rule="evenodd" clip-rule="evenodd" d="M15.8001 31.2001C19.8314 31.2001 23.6976 29.5986 26.5481 26.7481C29.3987 23.8975 31.0001 20.0313 31.0001 16C31.0001 11.9688 29.3987 8.10258 26.5481 5.25203C23.6976 2.40147 19.8314 0.800049 15.8001 0.800049C11.7688 0.800049 7.90263 2.40147 5.05207 5.25203C2.20152 8.10258 0.600098 11.9688 0.600098 16C0.600098 20.0313 2.20152 23.8975 5.05207 26.7481C7.90263 29.5986 11.7688 31.2001 15.8001 31.2001ZM22.8434 13.5433C23.1895 13.185 23.381 12.7051 23.3767 12.2069C23.3724 11.7087 23.1725 11.2322 22.8203 10.8799C22.468 10.5276 21.9914 10.3278 21.4933 10.3235C20.9951 10.3191 20.5151 10.5106 20.1568 10.8567L13.9001 17.1135L11.4434 14.6567C11.0851 14.3106 10.6051 14.1191 10.1069 14.1235C9.60876 14.1278 9.13222 14.3276 8.77994 14.6799C8.42767 15.0322 8.22785 15.5087 8.22352 16.0069C8.21919 16.5051 8.4107 16.985 8.7568 17.3433L12.5568 21.1433C12.9131 21.4995 13.3963 21.6996 13.9001 21.6996C14.4039 21.6996 14.8871 21.4995 15.2434 21.1433L22.8434 13.5433Z" fill="#5865F2"/>
</svg>
