<svg width="38" height="38" viewBox="0 0 38 38" fill="none" xmlns="http://www.w3.org/2000/svg">
<path fill-rule="evenodd" clip-rule="evenodd" d="M18.6718 7.35792V2V7.35792Z" fill="#1A1A1A"/>
<path d="M18.6718 7.35792V2" stroke="#1A1A1A" stroke-width="1.5" stroke-linecap="round"/>
<path fill-rule="evenodd" clip-rule="evenodd" d="M18.6717 20.0818C18.6717 20.0818 22.9543 12.9442 21.5268 10.0892C21.5268 10.0892 20.5751 7.71002 18.6717 7.71002C16.7684 7.71002 15.8167 10.0892 15.8167 10.0892C14.3892 12.9442 18.6717 20.0818 18.6717 20.0818Z" fill="#1A1A1A" stroke="#1A1A1A" stroke-width="1.5"/>
<path fill-rule="evenodd" clip-rule="evenodd" d="M8.20329 31.5019C13.4375 34.8327 22.9542 34.8327 28.1884 31.5019V24.8402C28.1884 24.8402 36.7535 20.5576 33.8985 14.8476C30.0918 8.66172 21.0509 11.5167 18.6717 18.6543C15.3408 11.5167 6.29994 8.66172 3.44492 14.8476C0.589902 20.5576 8.20329 24.3643 8.20329 24.3643V31.5019Z" fill="#1A1A1A"/>
<path d="M18.6717 18.6543C21.0509 11.5167 30.0918 8.66172 33.8985 14.8476C36.7535 20.5576 28.1884 24.8402 28.1884 24.8402V31.5019C22.9542 34.8327 13.4375 34.8327 8.20329 31.5019V24.3643C8.20329 24.3643 0.589902 20.5576 3.44492 14.8476C6.29994 8.66172 15.3408 11.5167 18.6717 18.6543ZM18.6717 18.6543V21.9851" stroke="#1A1A1A" stroke-width="1.5" stroke-linecap="round" stroke-linejoin="round"/>
<path fill-rule="evenodd" clip-rule="evenodd" d="M16.2925 3.90332H21.0508H16.2925Z" fill="#1A1A1A"/>
<path d="M16.2925 3.90332H21.0508" stroke="#1A1A1A" stroke-width="1.5" stroke-linecap="round"/>
</svg>
