<svg width="18" height="14" viewBox="0 0 18 14" fill="none" xmlns="http://www.w3.org/2000/svg">
<path d="M17.0101 1.66498C16.4151 1.91998 15.7351 2.08999 15.0551 2.17499C15.7351 1.74999 16.3301 1.06999 16.5851 0.30499C15.9051 0.72999 15.2251 0.98499 14.3751 1.15499C13.7801 0.47499 12.8451 0.0499878 11.9101 0.0499878C10.0401 0.0499878 8.51009 1.57999 8.51009 3.44999C8.51009 3.70499 8.5101 3.95998 8.5951 4.21498C5.7901 4.04498 3.24009 2.68499 1.54009 0.644985C1.28509 1.15499 1.11509 1.74999 1.11509 2.34499C1.11509 3.53499 1.7101 4.55499 2.6451 5.14999C2.0501 5.14999 1.54009 4.97999 1.11509 4.72499C1.11509 6.33999 2.30509 7.78498 3.83509 8.03998C3.58009 8.12498 3.2401 8.12499 2.9001 8.12499C2.6451 8.12499 2.4751 8.12498 2.2201 8.03998C2.6451 9.39998 3.9201 10.42 5.4501 10.42C4.2601 11.355 2.8151 11.865 1.2001 11.865C0.945098 11.865 0.690098 11.865 0.350098 11.78C1.8801 12.715 3.6651 13.31 5.6201 13.31C11.9101 13.31 15.3101 8.12499 15.3101 3.61999V3.19499C15.9901 2.93999 16.5851 2.34498 17.0101 1.66498Z" fill="#1A1A1A"/>
</svg>
